<svg width="58" height="61" viewBox="0 0 58 61" fill="none" xmlns="http://www.w3.org/2000/svg">
<path d="M0.96 23H9.856V22.552C6.656 22.136 5.696 20.792 5.696 17.56V2.872H5.888L14.208 23.032H15.36L22.816 2.872H22.976V20.728C22.976 22.008 22.176 22.456 19.904 22.552V23H30.944V22.552C28.256 22.456 27.616 21.944 27.616 20.728V2.968C27.616 1.752 28.256 1.208 30.944 1.112V0.695999H22.784L16.736 17.144H16.576L9.984 0.695999H0.96V1.112C3.712 1.176 4.896 2.648 4.896 4.568V17.56C4.896 20.792 3.968 22.168 0.96 22.552V23Z" fill="white"/>
<path d="M52.128 23.352H53.664V6.104C53.664 2.936 54.528 1.56 57.536 1.112V0.695999H48.448V1.112C51.68 1.496 52.864 2.936 52.864 6.104V16.728H52.832L40.512 0.695999H32.96V1.112C35.712 1.24 36.896 2.872 36.896 4.824V17.56C36.896 20.792 35.968 22.168 32.96 22.552V23H41.984V22.552C38.72 22.2 37.696 20.792 37.696 17.56V4.728H37.728L52.128 23.352Z" fill="white"/>
<path d="M9.6 52H21.696V51.552C18.848 51.488 17.984 50.944 17.984 49.728V30.272H18.752C21.216 30.272 23.136 32.736 25.376 37.088L25.856 37.024L25.696 29.696H5.568L5.376 37.024L5.856 37.088C8.128 32.64 10.08 30.272 12.512 30.272H13.312V49.728C13.312 50.944 12.416 51.488 9.6 51.552V52Z" fill="white"/>
<path d="M52.128 52.352H53.664V35.104C53.664 31.936 54.528 30.56 57.536 30.112V29.696H48.448V30.112C51.68 30.496 52.864 31.936 52.864 35.104V45.728H52.832L40.512 29.696H32.96V30.112C35.712 30.24 36.896 31.872 36.896 33.824V46.56C36.896 49.792 35.968 51.168 32.96 51.552V52H41.984V51.552C38.72 51.2 37.696 49.792 37.696 46.56V33.728H37.728L52.128 52.352Z" fill="white"/>
</svg>
